<svg width="27" height="27" viewBox="0 0 27 27" fill="none" xmlns="http://www.w3.org/2000/svg">
<path d="M20.8865 4.63379C20.0449 4.63379 19.3608 5.31787 19.3608 6.15949C19.3608 7.00112 20.0449 7.6852 20.8865 7.6852C21.7282 7.6852 22.4122 7.00112 22.4122 6.15949C22.4122 5.31787 21.7282 4.63379 20.8865 4.63379Z" fill="white"/>
<path d="M14.1079 6.59033C10.5755 6.59033 7.69824 9.46347 7.69824 13C7.69824 16.5364 10.5714 19.4096 14.1079 19.4096C17.6443 19.4096 20.5175 16.5364 20.5175 13C20.5175 9.46347 17.6443 6.59033 14.1079 6.59033ZM14.1079 17.1044C11.8442 17.1044 10.0034 15.2636 10.0034 13C10.0034 10.7363 11.8442 8.89547 14.1079 8.89547C16.3715 8.89547 18.2123 10.7363 18.2123 13C18.2123 15.2636 16.3715 17.1044 14.1079 17.1044Z" fill="white"/>
<path d="M19.1906 26.0101H8.80093C4.4933 26.0101 0.98584 22.5027 0.98584 18.195V7.80533C0.98584 3.4977 4.4933 -0.00976562 8.80093 -0.00976562H19.1906C23.4983 -0.00976562 27.0057 3.4977 27.0057 7.80533V18.195C27.0057 22.5027 23.4983 26.0101 19.1906 26.0101ZM8.80508 2.43634C5.84488 2.43634 3.43609 4.84513 3.43609 7.80533V18.195C3.43609 21.1552 5.84488 23.564 8.80508 23.564H19.1948C22.155 23.564 24.5638 21.1552 24.5638 18.195V7.80533C24.5638 4.84513 22.155 2.43634 19.1948 2.43634H8.80508Z" fill="white"/>
</svg>
