<?xml version="1.0" encoding="UTF-8"?>
<svg id="Capa_1" data-name="Capa 1" xmlns="http://www.w3.org/2000/svg" viewBox="0 0 477 478.29">
  <defs>
    <style>
      .cls-1 {
        fill: #1d1737;
      }

      .cls-2 {
        stroke: #654c9a;
      }

      .cls-2, .cls-3, .cls-4, .cls-5, .cls-6, .cls-7, .cls-8 {
        fill: none;
        stroke-miterlimit: 10;
      }

      .cls-2, .cls-3, .cls-5, .cls-8 {
        stroke-width: 7px;
      }

      .cls-3 {
        stroke: #d9dcf0;
      }

      .cls-4 {
        stroke: #83a2d5;
      }

      .cls-4, .cls-6, .cls-7 {
        stroke-width: 6px;
      }

      .cls-5 {
        stroke: #1d1737;
      }

      .cls-6 {
        stroke: #fff;
      }

      .cls-7 {
        stroke: #ac7db5;
      }

      .cls-8 {
        stroke: #fac074;
      }
    </style>
  </defs>
  <g>
    <path class="cls-7" d="M237.08,41.63c-108.59,0-196.61,88.03-196.61,196.61s88.03,196.61,196.61,196.61"/>
    <path class="cls-4" d="M237.08,47.15c-105.54,0-191.1,85.56-191.1,191.1,0,105.54,85.56,191.1,191.1,191.1"/>
    <path class="cls-4" d="M237.08,22.22c-119.31,0-216.03,96.72-216.03,216.03s96.72,216.03,216.03,216.03"/>
    <path class="cls-6" d="M237.19,34.49c-112.53,0-203.75,91.22-203.75,203.75,0,112.53,91.22,203.75,203.75,203.75"/>
    <path class="cls-7" d="M237.08,28.41c-115.89,0-209.84,93.95-209.84,209.84,0,115.89,93.95,209.84,209.84,209.84"/>
  </g>
  <g>
    <path class="cls-8" d="M237.08,454.08c119.2,0,215.83-96.63,215.83-215.83S356.28,22.41,237.08,22.41"/>
    <path class="cls-2" d="M237.08,437.36c109.97,0,199.12-89.15,199.12-199.12S347.05,39.13,237.08,39.13"/>
    <path class="cls-3" d="M237.08,446.18c113.94,0,206.31-93.1,206.31-207.94,0-114.84-92.37-207.94-206.31-207.94"/>
    <path class="cls-5" d="M237.08,429.85c106.97,0,193.69-85.78,193.69-191.61S344.05,46.64,237.08,46.64"/>
  </g>
  <g>
    <path class="cls-7" d="M237.08,41.63c-108.59,0-196.61,88.03-196.61,196.61s88.03,196.61,196.61,196.61"/>
    <path class="cls-4" d="M237.08,47.15c-105.54,0-191.1,85.56-191.1,191.1,0,105.54,85.56,191.1,191.1,191.1"/>
    <path class="cls-4" d="M237.08,22.22c-119.31,0-216.03,96.72-216.03,216.03s96.72,216.03,216.03,216.03"/>
    <path class="cls-6" d="M237.19,34.49c-112.53,0-203.75,91.22-203.75,203.75,0,112.53,91.22,203.75,203.75,203.75"/>
    <path class="cls-7" d="M237.08,28.41c-115.89,0-209.84,93.95-209.84,209.84,0,115.89,93.95,209.84,209.84,209.84"/>
  </g>
  <g>
    <path class="cls-8" d="M237.08,454.08c119.2,0,215.83-96.63,215.83-215.83S356.28,22.41,237.08,22.41"/>
    <path class="cls-2" d="M237.08,437.36c109.97,0,199.12-89.15,199.12-199.12S347.05,39.13,237.08,39.13"/>
    <path class="cls-3" d="M237.08,446.18c113.94,0,206.31-93.1,206.31-207.94,0-114.84-92.37-207.94-206.31-207.94"/>
    <path class="cls-5" d="M237.08,429.85c106.97,0,193.69-85.78,193.69-191.61S344.05,46.64,237.08,46.64"/>
  </g>
  <g>
    <g id="Palabras">
      <g>
        <path class="cls-1" d="M132.35,174.69h-14.9l4.95-13.61h46.15l-4.95,13.61h-14.62l-13.89,38.16h-16.63l13.89-38.16Z"/>
        <path class="cls-1" d="M174.24,161.08h24.77c3.7,0,6.81,.25,9.34,.76,2.53,.5,4.47,1.34,5.81,2.52,1.35,1.18,2.11,2.71,2.28,4.61,.17,1.9-.25,4.24-1.26,7.02-1.15,3.17-2.78,5.78-4.87,7.85-2.1,2.06-4.81,3.72-8.14,4.97,2.65,.62,4.32,1.81,5,3.56,.68,1.75,.42,4.41-.77,7.96l-2.33,7.2c-.36,1.11-.57,1.92-.64,2.45-.07,.53,.23,.84,.92,.94l-.71,1.94h-16.78c.3-2.54,.64-4.34,1.03-5.4l1.89-5.18c1-2.74,1.16-4.63,.49-5.69-.67-1.06-2.3-1.58-4.9-1.58h-7.06l-6.5,17.86h-16.42l18.84-51.77Zm15.88,22.25c2.4,0,4.28-.31,5.63-.94,1.35-.62,2.39-1.92,3.11-3.89,.75-2.06,.62-3.39-.38-4-1.01-.6-2.76-.9-5.25-.9h-7.13l-3.54,9.72h7.56Z"/>
        <path class="cls-1" d="M242.28,161.08h16.85l-.63,51.77h-16.49l.55-6.84h-16.49l-4.51,6.84h-16.34l37.06-51.77Zm1.21,34.06l1.34-17.93-11.78,17.93h10.44Z"/>
        <path class="cls-1" d="M282.09,161.08h15.77l5.79,24.05c.36,1.39,.47,3.86,.33,7.42,.21-1.1,.5-2.24,.88-3.42,.38-1.18,.8-2.39,1.25-3.64l8.88-24.41h15.84l-18.84,51.77h-15.84l-5.84-23.9c-.14-.67-.25-1.62-.33-2.84-.08-1.22-.08-2.75,0-4.57-.23,1.29-.55,2.53-.95,3.71-.4,1.18-.8,2.29-1.18,3.35l-8.83,24.26h-15.77l18.84-51.77Z"/>
        <path class="cls-1" d="M341.48,196.72c-.27,1.92,.04,3.28,.93,4.07,.89,.79,2.48,1.19,4.79,1.19,2.02,0,3.69-.35,5.02-1.04,1.33-.7,2.2-1.59,2.6-2.7,.3-.82,.34-1.46,.13-1.94-.21-.48-.62-.89-1.25-1.22-.62-.33-1.46-.65-2.5-.94s-2.27-.62-3.67-1.01c-3.25-.96-5.9-1.84-7.94-2.63-2.04-.79-3.47-1.57-4.29-2.34-2.96-2.83-3.5-6.81-1.63-11.95,.91-2.5,2.21-4.76,3.92-6.8,1.7-2.04,3.75-3.78,6.15-5.22,2.4-1.44,5.08-2.54,8.05-3.31,2.97-.77,6.18-1.15,9.63-1.15,6.72,0,11.46,1.4,14.23,4.21,2.77,2.81,3.44,6.83,2.02,12.06h-15.77c.62-3.02-1.06-4.54-5.04-4.54-3.5,0-5.68,1.18-6.54,3.53-.24,.67-.28,1.22-.1,1.66,.18,.43,.53,.82,1.06,1.15,.53,.34,1.22,.62,2.1,.86,.87,.24,1.87,.53,3,.86,2.92,.82,5.5,1.56,7.75,2.23,2.25,.67,4.02,1.56,5.29,2.66,1.74,1.54,2.79,3.27,3.15,5.19,.36,1.92,.05,4.22-.93,6.91-2.06,5.66-5.62,10.04-10.69,13.14-5.06,3.09-11.39,4.64-18.97,4.64-7.01,0-11.92-1.55-14.73-4.64-2.81-3.1-3.47-7.4-1.99-12.92h16.2Z"/>
      </g>
      <g>
        <path class="cls-1" d="M138.79,222.87h21.06l-.78,64.71h-20.61l.68-8.55h-20.61l-5.63,8.55h-20.43l46.32-64.71Zm1.52,42.57l1.68-22.41-14.73,22.41h13.05Z"/>
        <path class="cls-1" d="M193.06,222.87h48.96l-5.93,16.29h-28.17l-3.64,9.99h22.41l-5.7,15.66h-22.41l-8.29,22.77h-20.79l23.55-64.71Z"/>
        <path class="cls-1" d="M270.82,222.87h21.06l-.78,64.71h-20.61l.68-8.55h-20.61l-5.63,8.55h-20.43l46.32-64.71Zm1.52,42.57l1.68-22.41-14.73,22.41h13.05Z"/>
        <path class="cls-1" d="M325.09,222.87h26.55c3.96,0,7.48,.09,10.57,.27,3.08,.18,5.72,.72,7.92,1.62,2.86,1.2,4.69,3.09,5.5,5.67,.8,2.58,.51,5.76-.86,9.54-2.16,5.94-6.36,10.29-12.58,13.05,3.02,1.26,4.89,3.12,5.62,5.58,.72,2.46,.38,5.64-1.04,9.54-1.42,3.9-3.43,7.25-6.04,10.04-2.61,2.79-5.72,4.96-9.35,6.53-3.4,1.44-6.8,2.28-10.19,2.52-3.39,.24-7.06,.36-11.02,.36h-28.62l23.55-64.71Zm11.74,49.59c3.06,0,5.45-.43,7.18-1.3,1.73-.87,3-2.44,3.83-4.72,.83-2.28,.66-3.84-.5-4.68-1.17-.84-3.28-1.26-6.34-1.26h-9.45l-4.36,11.97h9.63Zm7.57-23.76c2.7,0,4.82-.39,6.37-1.17,1.54-.78,2.71-2.25,3.5-4.41,.46-1.26,.63-2.26,.51-3.01-.12-.75-.54-1.32-1.27-1.71-.73-.39-1.75-.63-3.07-.72-1.32-.09-2.91-.13-4.77-.13h-5.76l-4.06,11.16h8.55Z"/>
      </g>
      <g>
        <path class="cls-1" d="M112.98,313.89h-19.24l1.59-4.38h19.24l-1.59,4.38Zm2.75-7.56h-19.24l1.59-4.37h19.24l-1.59,4.37Z"/>
        <path class="cls-1" d="M132.32,294.09l-1.57,15.26,9.83-15.26h7.47l-16.57,23.65h-7.56l.65-23.65h7.76Z"/>
        <path class="cls-1" d="M150.61,294.09h18.91l-2.06,5.66h-11.31l-1.15,3.16h9.57l-1.98,5.43h-9.57l-1.33,3.65h11.77l-2.09,5.76h-19.37l8.61-23.65Z"/>
        <path class="cls-1" d="M173.53,294.09h7.2l2.65,10.99c.16,.64,.21,1.76,.15,3.39,.1-.5,.23-1.03,.4-1.56,.17-.54,.36-1.09,.57-1.66l4.06-11.15h7.24l-8.61,23.65h-7.24l-2.67-10.92c-.06-.31-.11-.74-.15-1.3-.04-.56-.04-1.25,0-2.09-.11,.59-.25,1.16-.44,1.69-.18,.54-.36,1.05-.54,1.53l-4.03,11.08h-7.2l8.61-23.65Z"/>
        <path class="cls-1" d="M200.31,294.09h18.91l-2.06,5.66h-11.31l-1.15,3.16h9.57l-1.98,5.43h-9.57l-1.33,3.65h11.77l-2.09,5.76h-19.37l8.61-23.65Z"/>
        <path class="cls-1" d="M215.57,312.05l15.26-11.84h-10.59l2.23-6.12h19.93l-2.05,5.62-15.43,11.94h11.68l-2.21,6.08h-20.88l2.07-5.69Z"/>
        <path class="cls-1" d="M253.95,294.09l-5.3,14.57c-.48,1.32-.56,2.27-.25,2.86,.31,.59,1.16,.89,2.54,.89s2.41-.3,3.14-.9c.74-.6,1.34-1.55,1.81-2.84l5.3-14.57h7.6l-5.52,15.16c-1.09,2.98-2.86,5.25-5.31,6.81-2.45,1.56-5.52,2.34-9.2,2.34s-6.2-.78-7.54-2.34c-1.34-1.56-1.47-3.83-.38-6.81l5.52-15.16h7.6Z"/>
        <path class="cls-1" d="M273.22,294.09h18.91l-2.06,5.66h-11.31l-1.15,3.16h9.57l-1.98,5.43h-9.57l-1.33,3.65h11.77l-2.09,5.76h-19.37l8.61-23.65Z"/>
        <path class="cls-1" d="M296.14,294.09h7.6l-6.32,17.37h10.33l-2.29,6.28h-17.92l8.61-23.65Z"/>
        <path class="cls-1" d="M323.15,294.09h7.7l-.29,23.65h-7.53l.25-3.12h-7.53l-2.06,3.12h-7.47l16.93-23.65Zm.55,15.56l.61-8.19-5.38,8.19h4.77Z"/>
        <path class="cls-1" d="M355.21,313.89h-19.24l1.59-4.38h19.24l-1.59,4.38Zm2.75-7.56h-19.24l1.59-4.37h19.24l-1.59,4.37Z"/>
      </g>
    </g>
    <g id="Palabras-2" data-name="Palabras">
      <g>
        <path class="cls-1" d="M132.35,174.69h-14.9l4.95-13.61h46.15l-4.95,13.61h-14.62l-13.89,38.16h-16.63l13.89-38.16Z"/>
        <path class="cls-1" d="M174.24,161.08h24.77c3.7,0,6.81,.25,9.34,.76,2.53,.5,4.47,1.34,5.81,2.52,1.35,1.18,2.11,2.71,2.28,4.61,.17,1.9-.25,4.24-1.26,7.02-1.15,3.17-2.78,5.78-4.87,7.85-2.1,2.06-4.81,3.72-8.14,4.97,2.65,.62,4.32,1.81,5,3.56,.68,1.75,.42,4.41-.77,7.96l-2.33,7.2c-.36,1.11-.57,1.92-.64,2.45-.07,.53,.23,.84,.92,.94l-.71,1.94h-16.78c.3-2.54,.64-4.34,1.03-5.4l1.89-5.18c1-2.74,1.16-4.63,.49-5.69-.67-1.06-2.3-1.58-4.9-1.58h-7.06l-6.5,17.86h-16.42l18.84-51.77Zm15.88,22.25c2.4,0,4.28-.31,5.63-.94,1.35-.62,2.39-1.92,3.11-3.89,.75-2.06,.62-3.39-.38-4-1.01-.6-2.76-.9-5.25-.9h-7.13l-3.54,9.72h7.56Z"/>
        <path class="cls-1" d="M242.28,161.08h16.85l-.63,51.77h-16.49l.55-6.84h-16.49l-4.51,6.84h-16.34l37.06-51.77Zm1.21,34.06l1.34-17.93-11.78,17.93h10.44Z"/>
        <path class="cls-1" d="M282.09,161.08h15.77l5.79,24.05c.36,1.39,.47,3.86,.33,7.42,.21-1.1,.5-2.24,.88-3.42,.38-1.18,.8-2.39,1.25-3.64l8.88-24.41h15.84l-18.84,51.77h-15.84l-5.84-23.9c-.14-.67-.25-1.62-.33-2.84-.08-1.22-.08-2.75,0-4.57-.23,1.29-.55,2.53-.95,3.71-.4,1.18-.8,2.29-1.18,3.35l-8.83,24.26h-15.77l18.84-51.77Z"/>
        <path class="cls-1" d="M341.48,196.72c-.27,1.92,.04,3.28,.93,4.07,.89,.79,2.48,1.19,4.79,1.19,2.02,0,3.69-.35,5.02-1.04,1.33-.7,2.2-1.59,2.6-2.7,.3-.82,.34-1.46,.13-1.94-.21-.48-.62-.89-1.25-1.22-.62-.33-1.46-.65-2.5-.94s-2.27-.62-3.67-1.01c-3.25-.96-5.9-1.84-7.94-2.63-2.04-.79-3.47-1.57-4.29-2.34-2.96-2.83-3.5-6.81-1.63-11.95,.91-2.5,2.21-4.76,3.92-6.8,1.7-2.04,3.75-3.78,6.15-5.22,2.4-1.44,5.08-2.54,8.05-3.31,2.97-.77,6.18-1.15,9.63-1.15,6.72,0,11.46,1.4,14.23,4.21,2.77,2.81,3.44,6.83,2.02,12.06h-15.77c.62-3.02-1.06-4.54-5.04-4.54-3.5,0-5.68,1.18-6.54,3.53-.24,.67-.28,1.22-.1,1.66,.18,.43,.53,.82,1.06,1.15,.53,.34,1.22,.62,2.1,.86,.87,.24,1.87,.53,3,.86,2.92,.82,5.5,1.56,7.75,2.23,2.25,.67,4.02,1.56,5.29,2.66,1.74,1.54,2.79,3.27,3.15,5.19,.36,1.92,.05,4.22-.93,6.91-2.06,5.66-5.62,10.04-10.69,13.14-5.06,3.09-11.39,4.64-18.97,4.64-7.01,0-11.92-1.55-14.73-4.64-2.81-3.1-3.47-7.4-1.99-12.92h16.2Z"/>
      </g>
      <g>
        <path class="cls-1" d="M138.79,222.87h21.06l-.78,64.71h-20.61l.68-8.55h-20.61l-5.63,8.55h-20.43l46.32-64.71Zm1.52,42.57l1.68-22.41-14.73,22.41h13.05Z"/>
        <path class="cls-1" d="M193.06,222.87h48.96l-5.93,16.29h-28.17l-3.64,9.99h22.41l-5.7,15.66h-22.41l-8.29,22.77h-20.79l23.55-64.71Z"/>
        <path class="cls-1" d="M270.82,222.87h21.06l-.78,64.71h-20.61l.68-8.55h-20.61l-5.63,8.55h-20.43l46.32-64.71Zm1.52,42.57l1.68-22.41-14.73,22.41h13.05Z"/>
        <path class="cls-1" d="M325.09,222.87h26.55c3.96,0,7.48,.09,10.57,.27,3.08,.18,5.72,.72,7.92,1.62,2.86,1.2,4.69,3.09,5.5,5.67,.8,2.58,.51,5.76-.86,9.54-2.16,5.94-6.36,10.29-12.58,13.05,3.02,1.26,4.89,3.12,5.62,5.58,.72,2.46,.38,5.64-1.04,9.54-1.42,3.9-3.43,7.25-6.04,10.04-2.61,2.79-5.72,4.96-9.35,6.53-3.4,1.44-6.8,2.28-10.19,2.52-3.39,.24-7.06,.36-11.02,.36h-28.62l23.55-64.71Zm11.74,49.59c3.06,0,5.45-.43,7.18-1.3,1.73-.87,3-2.44,3.83-4.72,.83-2.28,.66-3.84-.5-4.68-1.17-.84-3.28-1.26-6.34-1.26h-9.45l-4.36,11.97h9.63Zm7.57-23.76c2.7,0,4.82-.39,6.37-1.17,1.54-.78,2.71-2.25,3.5-4.41,.46-1.26,.63-2.26,.51-3.01-.12-.75-.54-1.32-1.27-1.71-.73-.39-1.75-.63-3.07-.72-1.32-.09-2.91-.13-4.77-.13h-5.76l-4.06,11.16h8.55Z"/>
      </g>
      <g>
        <path class="cls-1" d="M112.98,313.89h-19.24l1.59-4.38h19.24l-1.59,4.38Zm2.75-7.56h-19.24l1.59-4.37h19.24l-1.59,4.37Z"/>
        <path class="cls-1" d="M132.32,294.09l-1.57,15.26,9.83-15.26h7.47l-16.57,23.65h-7.56l.65-23.65h7.76Z"/>
        <path class="cls-1" d="M150.61,294.09h18.91l-2.06,5.66h-11.31l-1.15,3.16h9.57l-1.98,5.43h-9.57l-1.33,3.65h11.77l-2.09,5.76h-19.37l8.61-23.65Z"/>
        <path class="cls-1" d="M173.53,294.09h7.2l2.65,10.99c.16,.64,.21,1.76,.15,3.39,.1-.5,.23-1.03,.4-1.56,.17-.54,.36-1.09,.57-1.66l4.06-11.15h7.24l-8.61,23.65h-7.24l-2.67-10.92c-.06-.31-.11-.74-.15-1.3-.04-.56-.04-1.25,0-2.09-.11,.59-.25,1.16-.44,1.69-.18,.54-.36,1.05-.54,1.53l-4.03,11.08h-7.2l8.61-23.65Z"/>
        <path class="cls-1" d="M200.31,294.09h18.91l-2.06,5.66h-11.31l-1.15,3.16h9.57l-1.98,5.43h-9.57l-1.33,3.65h11.77l-2.09,5.76h-19.37l8.61-23.65Z"/>
        <path class="cls-1" d="M215.57,312.05l15.26-11.84h-10.59l2.23-6.12h19.93l-2.05,5.62-15.43,11.94h11.68l-2.21,6.08h-20.88l2.07-5.69Z"/>
        <path class="cls-1" d="M253.95,294.09l-5.3,14.57c-.48,1.32-.56,2.27-.25,2.86,.31,.59,1.16,.89,2.54,.89s2.41-.3,3.14-.9c.74-.6,1.34-1.55,1.81-2.84l5.3-14.57h7.6l-5.52,15.16c-1.09,2.98-2.86,5.25-5.31,6.81-2.45,1.56-5.52,2.34-9.2,2.34s-6.2-.78-7.54-2.34c-1.34-1.56-1.47-3.83-.38-6.81l5.52-15.16h7.6Z"/>
        <path class="cls-1" d="M273.22,294.09h18.91l-2.06,5.66h-11.31l-1.15,3.16h9.57l-1.98,5.43h-9.57l-1.33,3.65h11.77l-2.09,5.76h-19.37l8.61-23.65Z"/>
        <path class="cls-1" d="M296.14,294.09h7.6l-6.32,17.37h10.33l-2.29,6.28h-17.92l8.61-23.65Z"/>
        <path class="cls-1" d="M323.15,294.09h7.7l-.29,23.65h-7.53l.25-3.12h-7.53l-2.06,3.12h-7.47l16.93-23.65Zm.55,15.56l.61-8.19-5.38,8.19h4.77Z"/>
        <path class="cls-1" d="M355.21,313.89h-19.24l1.59-4.38h19.24l-1.59,4.38Zm2.75-7.56h-19.24l1.59-4.37h19.24l-1.59,4.37Z"/>
      </g>
    </g>
    <g id="Palabras-3" data-name="Palabras">
      <g>
        <path class="cls-1" d="M132.35,174.69h-14.9l4.95-13.61h46.15l-4.95,13.61h-14.62l-13.89,38.16h-16.63l13.89-38.16Z"/>
        <path class="cls-1" d="M174.24,161.08h24.77c3.7,0,6.81,.25,9.34,.76,2.53,.5,4.47,1.34,5.81,2.52,1.35,1.18,2.11,2.71,2.28,4.61,.17,1.9-.25,4.24-1.26,7.02-1.15,3.17-2.78,5.78-4.87,7.85-2.1,2.06-4.81,3.72-8.14,4.97,2.65,.62,4.32,1.81,5,3.56,.68,1.75,.42,4.41-.77,7.96l-2.33,7.2c-.36,1.11-.57,1.92-.64,2.45-.07,.53,.23,.84,.92,.94l-.71,1.94h-16.78c.3-2.54,.64-4.34,1.03-5.4l1.89-5.18c1-2.74,1.16-4.63,.49-5.69-.67-1.06-2.3-1.58-4.9-1.58h-7.06l-6.5,17.86h-16.42l18.84-51.77Zm15.88,22.25c2.4,0,4.28-.31,5.63-.94,1.35-.62,2.39-1.92,3.11-3.89,.75-2.06,.62-3.39-.38-4-1.01-.6-2.76-.9-5.25-.9h-7.13l-3.54,9.72h7.56Z"/>
        <path class="cls-1" d="M242.28,161.08h16.85l-.63,51.77h-16.49l.55-6.84h-16.49l-4.51,6.84h-16.34l37.06-51.77Zm1.21,34.06l1.34-17.93-11.78,17.93h10.44Z"/>
        <path class="cls-1" d="M282.09,161.08h15.77l5.79,24.05c.36,1.39,.47,3.86,.33,7.42,.21-1.1,.5-2.24,.88-3.42,.38-1.18,.8-2.39,1.25-3.64l8.88-24.41h15.84l-18.84,51.77h-15.84l-5.84-23.9c-.14-.67-.25-1.62-.33-2.84-.08-1.22-.08-2.75,0-4.57-.23,1.29-.55,2.53-.95,3.71-.4,1.18-.8,2.29-1.18,3.35l-8.83,24.26h-15.77l18.84-51.77Z"/>
        <path class="cls-1" d="M341.48,196.72c-.27,1.92,.04,3.28,.93,4.07,.89,.79,2.48,1.19,4.79,1.19,2.02,0,3.69-.35,5.02-1.04,1.33-.7,2.2-1.59,2.6-2.7,.3-.82,.34-1.46,.13-1.94-.21-.48-.62-.89-1.25-1.22-.62-.33-1.46-.65-2.5-.94s-2.27-.62-3.67-1.01c-3.25-.96-5.9-1.84-7.94-2.63-2.04-.79-3.47-1.57-4.29-2.34-2.96-2.83-3.5-6.81-1.63-11.95,.91-2.5,2.21-4.76,3.92-6.8,1.7-2.04,3.75-3.78,6.15-5.22,2.4-1.44,5.08-2.54,8.05-3.31,2.97-.77,6.18-1.15,9.63-1.15,6.72,0,11.46,1.4,14.23,4.21,2.77,2.81,3.44,6.83,2.02,12.06h-15.77c.62-3.02-1.06-4.54-5.04-4.54-3.5,0-5.68,1.18-6.54,3.53-.24,.67-.28,1.22-.1,1.66,.18,.43,.53,.82,1.06,1.15,.53,.34,1.22,.62,2.1,.86,.87,.24,1.87,.53,3,.86,2.92,.82,5.5,1.56,7.75,2.23,2.25,.67,4.02,1.56,5.29,2.66,1.74,1.54,2.79,3.27,3.15,5.19,.36,1.92,.05,4.22-.93,6.91-2.06,5.66-5.62,10.04-10.69,13.14-5.06,3.09-11.39,4.64-18.97,4.64-7.01,0-11.92-1.55-14.73-4.64-2.81-3.1-3.47-7.4-1.99-12.92h16.2Z"/>
      </g>
      <g>
        <path class="cls-1" d="M138.79,222.87h21.06l-.78,64.71h-20.61l.68-8.55h-20.61l-5.63,8.55h-20.43l46.32-64.71Zm1.52,42.57l1.68-22.41-14.73,22.41h13.05Z"/>
        <path class="cls-1" d="M193.06,222.87h48.96l-5.93,16.29h-28.17l-3.64,9.99h22.41l-5.7,15.66h-22.41l-8.29,22.77h-20.79l23.55-64.71Z"/>
        <path class="cls-1" d="M270.82,222.87h21.06l-.78,64.71h-20.61l.68-8.55h-20.61l-5.63,8.55h-20.43l46.32-64.71Zm1.52,42.57l1.68-22.41-14.73,22.41h13.05Z"/>
        <path class="cls-1" d="M325.09,222.87h26.55c3.96,0,7.48,.09,10.57,.27,3.08,.18,5.72,.72,7.92,1.62,2.86,1.2,4.69,3.09,5.5,5.67,.8,2.58,.51,5.76-.86,9.54-2.16,5.94-6.36,10.29-12.58,13.05,3.02,1.26,4.89,3.12,5.62,5.58,.72,2.46,.38,5.64-1.04,9.54-1.42,3.9-3.43,7.25-6.04,10.04-2.61,2.79-5.72,4.96-9.35,6.53-3.4,1.44-6.8,2.28-10.19,2.52-3.39,.24-7.06,.36-11.02,.36h-28.62l23.55-64.71Zm11.74,49.59c3.06,0,5.45-.43,7.18-1.3,1.73-.87,3-2.44,3.83-4.72,.83-2.28,.66-3.84-.5-4.68-1.17-.84-3.28-1.26-6.34-1.26h-9.45l-4.36,11.97h9.63Zm7.57-23.76c2.7,0,4.82-.39,6.37-1.17,1.54-.78,2.71-2.25,3.5-4.41,.46-1.26,.63-2.26,.51-3.01-.12-.75-.54-1.32-1.27-1.71-.73-.39-1.75-.63-3.07-.72-1.32-.09-2.91-.13-4.77-.13h-5.76l-4.06,11.16h8.55Z"/>
      </g>
      <g>
        <path class="cls-1" d="M112.98,313.89h-19.24l1.59-4.38h19.24l-1.59,4.38Zm2.75-7.56h-19.24l1.59-4.37h19.24l-1.59,4.37Z"/>
        <path class="cls-1" d="M132.32,294.09l-1.57,15.26,9.83-15.26h7.47l-16.57,23.65h-7.56l.65-23.65h7.76Z"/>
        <path class="cls-1" d="M150.61,294.09h18.91l-2.06,5.66h-11.31l-1.15,3.16h9.57l-1.98,5.43h-9.57l-1.33,3.65h11.77l-2.09,5.76h-19.37l8.61-23.65Z"/>
        <path class="cls-1" d="M173.53,294.09h7.2l2.65,10.99c.16,.64,.21,1.76,.15,3.39,.1-.5,.23-1.03,.4-1.56,.17-.54,.36-1.09,.57-1.66l4.06-11.15h7.24l-8.61,23.65h-7.24l-2.67-10.92c-.06-.31-.11-.74-.15-1.3-.04-.56-.04-1.25,0-2.09-.11,.59-.25,1.16-.44,1.69-.18,.54-.36,1.05-.54,1.53l-4.03,11.08h-7.2l8.61-23.65Z"/>
        <path class="cls-1" d="M200.31,294.09h18.91l-2.06,5.66h-11.31l-1.15,3.16h9.57l-1.98,5.43h-9.57l-1.33,3.65h11.77l-2.09,5.76h-19.37l8.61-23.65Z"/>
        <path class="cls-1" d="M215.57,312.05l15.26-11.84h-10.59l2.23-6.12h19.93l-2.05,5.62-15.43,11.94h11.68l-2.21,6.08h-20.88l2.07-5.69Z"/>
        <path class="cls-1" d="M253.95,294.09l-5.3,14.57c-.48,1.32-.56,2.27-.25,2.86,.31,.59,1.16,.89,2.54,.89s2.41-.3,3.14-.9c.74-.6,1.34-1.55,1.81-2.84l5.3-14.57h7.6l-5.52,15.16c-1.09,2.98-2.86,5.25-5.31,6.81-2.45,1.56-5.52,2.34-9.2,2.34s-6.2-.78-7.54-2.34c-1.34-1.56-1.47-3.83-.38-6.81l5.52-15.16h7.6Z"/>
        <path class="cls-1" d="M273.22,294.09h18.91l-2.06,5.66h-11.31l-1.15,3.16h9.57l-1.98,5.43h-9.57l-1.33,3.65h11.77l-2.09,5.76h-19.37l8.61-23.65Z"/>
        <path class="cls-1" d="M296.14,294.09h7.6l-6.32,17.37h10.33l-2.29,6.28h-17.92l8.61-23.65Z"/>
        <path class="cls-1" d="M323.15,294.09h7.7l-.29,23.65h-7.53l.25-3.12h-7.53l-2.06,3.12h-7.47l16.93-23.65Zm.55,15.56l.61-8.19-5.38,8.19h4.77Z"/>
        <path class="cls-1" d="M355.21,313.89h-19.24l1.59-4.38h19.24l-1.59,4.38Zm2.75-7.56h-19.24l1.59-4.37h19.24l-1.59,4.37Z"/>
      </g>
    </g>
  </g>
</svg>