<svg width="25" height="29" viewBox="0 0 25 29" fill="none" xmlns="http://www.w3.org/2000/svg">
<g clip-path="url(#clip0_710_1360)">
<path d="M8.65013 29C8.01877 28.9053 7.37775 28.853 6.75829 28.7091C3.24603 27.8923 0.507174 24.7857 0.0684209 21.1549C-0.516087 16.3132 2.70391 11.942 7.45063 11.1487C8.36903 10.9949 9.29339 10.973 10.2289 11.1419V15.9078C9.98201 15.8608 9.75073 15.8078 9.51648 15.773C7.22902 15.4335 5.05236 17.0641 4.75192 19.3387C4.42918 21.78 6.02877 23.928 8.38019 24.2508C10.7465 24.5758 13.1566 22.7028 13.1351 19.8615C13.1091 16.4215 13.1358 12.9808 13.1381 9.54091C13.1395 6.48816 13.1381 3.43541 13.1381 0.382661C13.1381 0.26143 13.1381 0.140199 13.1381 -0.000732422H17.742C17.8097 0.487223 17.8513 0.975178 17.9472 1.45101C18.6002 4.68561 21.4141 7.11023 24.6497 7.22161C24.9323 7.23146 25.0037 7.30723 25.0007 7.59137C24.9859 8.93324 24.9941 10.2751 24.9941 11.6178C24.9941 11.7193 24.9941 11.8201 24.9941 11.9413C23.6652 11.9557 22.4151 11.7322 21.1933 11.3139C19.9737 10.8972 18.8582 10.2789 17.7844 9.46363C17.7844 9.62047 17.7844 9.71973 17.7844 9.81975C17.794 13.1657 17.803 16.5109 17.8134 19.8569C17.8193 21.6807 17.3783 23.3787 16.3692 24.8903C14.7235 27.3558 12.4294 28.7129 9.50607 28.9523C9.40568 28.9606 9.30678 28.9841 9.20713 29H8.65013Z" fill="white"/>
</g>
<defs>
<clipPath id="clip0_710_1360">
<rect width="25" height="29" fill="white"/>
</clipPath>
</defs>
</svg>
