<svg width="26" height="26" viewBox="0 0 26 26" fill="none" xmlns="http://www.w3.org/2000/svg">
<path d="M0.126949 25.902L1.97604 18.999C0.927114 17.1084 0.375704 14.9899 0.375704 12.8423C0.375704 5.8149 6.09295 0.0976562 13.1203 0.0976562C20.1477 0.0976562 25.8649 5.8149 25.8649 12.8423C25.8649 19.8696 20.1477 25.5869 13.1203 25.5869C11.01 25.5869 8.92463 25.0562 7.0631 24.0404L0.122803 25.8978L0.126949 25.902ZM7.41136 21.4575L7.84668 21.7187C9.45116 22.6764 11.2754 23.1781 13.1245 23.1781C18.8251 23.1781 23.4603 18.5429 23.4603 12.8423C23.4603 7.1416 18.821 2.50645 13.1245 2.50645C7.42794 2.50645 2.78864 7.1416 2.78864 12.8423C2.78864 14.7245 3.31103 16.5778 4.30191 18.203L4.57139 18.6424L3.53905 22.4982L7.41551 21.4575H7.41136Z" fill="white"/>
</svg>
