<svg width="26" height="26" viewBox="0 0 26 26" fill="none" xmlns="http://www.w3.org/2000/svg">
<path d="M0.126705 25.902L1.97579 18.999C0.92687 17.1084 0.37546 14.9899 0.37546 12.8423C0.37546 5.8149 6.09271 0.0976562 13.1201 0.0976562C20.1474 0.0976562 25.8647 5.8149 25.8647 12.8423C25.8647 19.8696 20.1474 25.5869 13.1201 25.5869C11.0098 25.5869 8.92438 25.0562 7.06286 24.0404L0.122559 25.8978L0.126705 25.902ZM7.41112 21.4575L7.84644 21.7187C9.45092 22.6764 11.2751 23.1781 13.1242 23.1781C18.8249 23.1781 23.46 18.5429 23.46 12.8423C23.46 7.1416 18.8207 2.50645 13.1242 2.50645C7.4277 2.50645 2.7884 7.1416 2.7884 12.8423C2.7884 14.7245 3.31078 16.5778 4.30166 18.203L4.57115 18.6424L3.53881 22.4982L7.41526 21.4575H7.41112Z" fill="white"/>
<path fill-rule="evenodd" clip-rule="evenodd" d="M17.8673 14.6126C17.3408 14.2975 16.6609 13.9493 16.0431 14.2022C15.5705 14.397 15.2678 15.1391 14.961 15.5164C14.8035 15.7113 14.6169 15.7403 14.3723 15.6449C12.5937 14.936 11.2297 13.7461 10.2471 12.1085C10.0813 11.8556 10.1103 11.6524 10.3093 11.4161C10.6078 11.0678 10.9768 10.6698 11.0597 10.1972C11.1385 9.72454 10.9187 9.17728 10.7239 8.75854C10.4751 8.22371 10.1973 7.46086 9.66252 7.15406C9.16915 6.87628 8.51824 7.02968 8.07877 7.39038C7.32007 8.00813 6.95523 8.97413 6.96352 9.93599C6.96352 10.2096 7.00083 10.4791 7.06302 10.7444C7.21642 11.3788 7.50663 11.9675 7.83831 12.5313C8.08706 12.9542 8.35655 13.3647 8.64677 13.7627C9.60033 15.0562 10.7819 16.1798 12.1542 17.0214C12.8383 17.4401 13.5763 17.8091 14.3433 18.062C15.2015 18.3439 15.9643 18.6383 16.8889 18.4642C17.859 18.2818 18.8126 17.6806 19.1982 16.7478C19.3101 16.47 19.3682 16.1632 19.306 15.873C19.1733 15.2677 18.3566 14.9111 17.8673 14.6167V14.6126Z" fill="white"/>
</svg>
