<svg width="31" height="26" viewBox="0 0 31 26" fill="none" xmlns="http://www.w3.org/2000/svg">
<g clip-path="url(#clip0_710_1371)">
<path d="M31.0001 18.9692C30.8766 19.4812 30.7261 19.9776 30.3777 20.3991C29.7916 21.1078 29.0353 21.4543 28.1174 21.4778C27.8663 21.484 27.6153 21.4785 27.3167 21.4785C27.3167 21.6034 27.3167 21.708 27.3167 21.8126C27.3167 22.8163 27.3286 23.8208 27.312 24.8245C27.2977 25.7018 26.4566 26.2521 25.6979 25.8837C25.5063 25.7908 25.3368 25.63 25.1934 25.4692C24.0966 24.236 23.0052 22.9974 21.921 21.7533C21.7579 21.566 21.5939 21.4817 21.3326 21.4817C17.7315 21.4918 14.1304 21.4887 10.5286 21.4879C9.9631 21.4879 9.61464 21.1866 9.62018 20.716C9.62414 20.3499 9.91004 20.026 10.2799 19.9776C10.3995 19.962 10.5214 19.9628 10.6426 19.9628C14.3546 19.9628 18.0673 19.9675 21.7793 19.955C22.2236 19.9534 22.5388 20.0971 22.8223 20.4295C23.7061 21.4637 24.6129 22.4784 25.511 23.5C25.576 23.5742 25.6457 23.6436 25.7518 23.756C25.7621 23.6233 25.7732 23.5398 25.774 23.4571C25.7755 22.5923 25.7724 21.7275 25.7755 20.8627C25.7779 20.2446 26.0709 19.9589 26.7037 19.9534C27.1472 19.9495 27.5915 19.9597 28.035 19.9503C28.9268 19.9324 29.4408 19.4274 29.4416 18.5478C29.4455 14.8794 29.4455 11.2111 29.4416 7.54272C29.4408 6.71695 28.9798 6.2346 28.1443 6.14797C27.6382 6.09489 27.323 5.75225 27.3682 5.30346C27.4102 4.88121 27.7848 4.61038 28.2829 4.6416C29.6641 4.72746 30.723 5.66874 30.9526 7.0151C30.9606 7.06271 30.9835 7.10876 31.0001 7.15481V18.9692Z" fill="white"/>
<path d="M3.6842 16.8901C3.31277 16.8714 2.97381 16.8581 2.63405 16.837C1.1903 16.748 0.00234358 15.5422 0.00155161 13.9749C0.00155161 10.2871 -0.0032002 6.59842 0.00392751 2.91056C0.00709539 1.52283 0.816487 0.480865 2.17392 0.106225C2.45111 0.0297361 2.75126 0.00476015 3.04033 0.00476015C9.3444 -0.000703342 15.6493 7.71572e-05 21.9541 0.00163816C23.4343 0.00163816 24.5042 0.775894 24.8931 2.14177C24.9707 2.41494 24.9969 2.70997 24.9976 2.99485C25.004 6.6234 25.004 10.2519 25.0008 13.8805C25 15.3306 24.1962 16.3999 22.8142 16.7629C22.5077 16.8433 22.1767 16.8589 21.8567 16.8596C17.7915 16.8659 13.7264 16.8659 9.66119 16.8581C9.4038 16.8581 9.23986 16.9338 9.07354 17.1266C7.98855 18.3832 6.88851 19.6273 5.79401 20.8761C5.5778 21.1227 5.3315 21.3194 4.98857 21.3584C4.26947 21.4396 3.69846 20.9604 3.68895 20.2376C3.67549 19.2339 3.68499 18.2294 3.6842 17.2257C3.6842 17.1188 3.6842 17.0118 3.6842 16.8909V16.8901ZM5.21983 19.1613C5.32754 19.0497 5.37743 19.0021 5.42257 18.9506C6.3468 17.8985 7.27895 16.8526 8.18892 15.7896C8.4669 15.4649 8.77814 15.3275 9.20818 15.3283C13.465 15.3385 17.7218 15.3346 21.9787 15.3338C22.9187 15.3338 23.4391 14.8225 23.4398 13.8953C23.4414 10.2566 23.4414 6.61871 23.4398 2.98002C23.4398 2.05045 22.9227 1.54 21.9834 1.54C15.6588 1.53844 9.3341 1.53922 3.00945 1.54156C2.84947 1.54156 2.68395 1.54781 2.5311 1.58761C1.89356 1.75386 1.55856 2.23777 1.55777 2.98549C1.55539 5.44094 1.55698 7.89639 1.55698 10.3518C1.55698 11.5546 1.54985 12.7573 1.55935 13.9601C1.56648 14.8108 2.10264 15.3228 2.96826 15.3299C3.30089 15.3322 3.6351 15.3486 3.96694 15.3267C4.9371 15.2643 5.26972 15.5828 5.22696 16.549C5.18973 17.3896 5.21904 18.2333 5.21904 19.1613H5.21983Z" fill="white"/>
<path d="M9.40202 9.60637C8.89199 9.60559 8.48017 9.20207 8.48096 8.70177C8.48096 8.19913 8.88961 7.80029 9.4036 7.80029C9.91759 7.80029 10.3231 8.19913 10.3223 8.70333C10.3223 9.20597 9.91284 9.60637 9.40123 9.60559L9.40202 9.60637Z" fill="white"/>
<path d="M12.5116 9.60711C12.0015 9.61179 11.5826 9.21374 11.5739 8.71578C11.5652 8.2186 11.9754 7.80728 12.4862 7.80181C12.9986 7.79635 13.4136 8.1905 13.4223 8.69158C13.431 9.18564 13.0168 9.60243 12.5108 9.60711H12.5116Z" fill="white"/>
<path d="M15.5836 9.60711C15.0775 9.60243 14.6633 9.18564 14.672 8.69158C14.6815 8.1905 15.0965 7.79635 15.6081 7.80181C16.1181 7.80728 16.5292 8.2186 16.5205 8.71578C16.5118 9.21374 16.0928 9.61179 15.5828 9.60711H15.5836Z" fill="white"/>
</g>
<defs>
<clipPath id="clip0_710_1371">
<rect width="31" height="26" fill="white"/>
</clipPath>
</defs>
</svg>
