<svg width="40" height="30" viewBox="0 0 40 30" fill="none" xmlns="http://www.w3.org/2000/svg">
<path d="M14.9124 14.6064C14.9124 13.0834 14.9095 11.5605 14.9124 10.0375C14.9163 8.54556 16.1643 7.81221 17.4904 8.53004C20.3197 10.0608 23.1461 11.5973 25.9706 13.1377C27.0542 13.7285 27.3124 14.8838 26.5456 15.7152C26.3833 15.8917 26.1681 16.0333 25.9539 16.1478C23.1295 17.6601 20.3021 19.1685 17.4718 20.6701C16.1408 21.3763 14.9144 20.6381 14.9115 19.1365C14.9085 17.6261 14.9115 16.1168 14.9115 14.6064H14.9124ZM23.8552 14.6336C21.6302 13.4259 19.4708 12.254 17.2831 11.0657V18.1364C19.4757 16.9675 21.6244 15.8219 23.8552 14.6326V14.6336Z" fill="white"/>
<path d="M0 11.4447C0.0518334 10.6221 0.108557 9.80046 0.154522 8.97689C0.231783 7.59749 0.356966 6.22875 0.781413 4.89882C1.64791 2.18464 3.53837 0.715992 6.35791 0.45796C8.17012 0.292082 9.99309 0.23 11.8122 0.158216C17.8082 -0.0765343 23.8052 -0.0474329 29.7993 0.22806C31.3182 0.297903 32.8477 0.346405 34.348 0.567575C36.9416 0.950742 38.745 2.7686 39.3592 5.34504C39.81 7.23275 39.8501 9.15441 39.9157 11.0722C40.0516 15.0465 40.0594 19.0227 39.6633 22.9843C39.5117 24.5044 39.1147 25.9866 38.1533 27.237C37.1499 28.5417 35.7993 29.3313 34.1592 29.472C31.9186 29.6641 29.6702 29.7688 27.4228 29.8629C21.7906 30.0996 16.1574 30.0016 10.5281 29.7717C8.81657 29.7019 7.09238 29.601 5.40632 29.3216C2.77749 28.8841 1.26747 27.1943 0.621023 24.6732C0.191686 22.995 0.188752 21.2761 0.0772612 19.5669C0.0577014 19.2603 0.0264057 18.9548 0 18.6482C0 16.2474 0 13.8465 0 11.4457V11.4447ZM20.8664 2.26418C17.1852 2.35246 14.3882 2.39999 11.5921 2.49214C9.88943 2.54841 8.18577 2.63183 6.48896 2.78122C4.85376 2.92478 3.67626 3.72022 3.11001 5.33049C2.6836 6.54402 2.57505 7.7944 2.49974 9.05643C2.28947 12.5893 2.27774 16.1251 2.43422 19.66C2.50267 21.215 2.52223 22.7787 2.94962 24.3026C3.36428 25.7781 4.23372 26.751 5.78578 27.043C6.21903 27.1245 6.6562 27.2186 7.09433 27.2418C9.26351 27.3573 11.4327 27.4718 13.6029 27.5494C18.0772 27.7104 22.5524 27.7308 27.0267 27.5464C29.326 27.4524 31.6282 27.3553 33.9196 27.1516C35.2986 27.0294 36.2726 26.2427 36.789 24.9137C37.2751 23.6634 37.4003 22.3635 37.4775 21.0481C37.6868 17.5016 37.7044 13.9532 37.545 10.4058C37.4746 8.83817 37.4854 7.25409 37.0247 5.72627C36.7792 4.91434 36.4634 4.15771 35.7465 3.61351C34.8966 2.9694 33.9137 2.76084 32.8927 2.71913C28.5905 2.54258 24.2874 2.39223 20.8654 2.26515L20.8664 2.26418Z" fill="white"/>
</svg>
